{"accessors":[{"bufferView":0,"byteOffset":0,"componentType":5126,"count":1950,"max":[0.1,0.375,0.1],"min":[-0.1,-0.375,-0.1],"normalized":false,"type":"VEC3"},{"bufferView":1,"byteOffset":0,"componentType":5126,"count":1950,"max":[1,0,1,1],"min":[-1,-0.000022,-1,1],"normalized":false,"type":"VEC4"},{"bufferView":2,"byteOffset":0,"componentType":5126,"count":1950,"max":[1,1,1],"min":[-1,-1,-1],"normalized":false,"type":"VEC3"},{"bufferView":3,"byteOffset":0,"componentType":5126,"count":1950,"max":[1,1],"min":[0,0],"normalized":false,"type":"VEC2"},{"bufferView":4,"byteOffset":0,"componentType":5125,"count":10368,"max":[1949],"min":[0],"normalized":false,"type":"SCALAR"},{"bufferView":5,"byteOffset":0,"componentType":5126,"count":1950,"max":[0.1,0.375,0.1],"min":[-0.1,-0.375,-0.1],"normalized":false,"type":"VEC3"},{"bufferView":6,"byteOffset":0,"componentType":5126,"count":1950,"max":[1,0,1,1],"min":[-1,-0.000022,-1,1],"normalized":false,"type":"VEC4"},{"bufferView":7,"byteOffset":0,"componentType":5126,"count":1950,"max":[1,1,1],"min":[-1,-1,-1],"normalized":false,"type":"VEC3"},{"bufferView":8,"byteOffset":0,"componentType":5126,"count":1950,"max":[1,1],"min":[0,0],"normalized":false,"type":"VEC2"},{"bufferView":9,"byteOffset":0,"componentType":5125,"count":10368,"max":[1949],"min":[0],"normalized":false,"type":"SCALAR"},{"bufferView":10,"byteOffset":0,"componentType":5126,"count":1950,"max":[0.1,0.375,0.1],"min":[-0.1,-0.375,-0.1],"normalized":false,"type":"VEC3"},{"bufferView":11,"byteOffset":0,"componentType":5126,"count":1950,"max":[1,0,1,1],"min":[-1,-0.000022,-1,1],"normalized":false,"type":"VEC4"},{"bufferView":12,"byteOffset":0,"componentType":5126,"count":1950,"max":[1,1,1],"min":[-1,-1,-1],"normalized":false,"type":"VEC3"},{"bufferView":13,"byteOffset":0,"componentType":5126,"count":1950,"max":[1,1],"min":[0,0],"normalized":false,"type":"VEC2"},{"bufferView":14,"byteOffset":0,"componentType":5125,"count":10368,"max":[1949],"min":[0],"normalized":false,"type":"SCALAR"},{"bufferView":15,"byteOffset":0,"componentType":5126,"count":1950,"max":[0.1,0.375,0.1],"min":[-0.1,-0.375,-0.1],"normalized":false,"type":"VEC3"},{"bufferView":16,"byteOffset":0,"componentType":5126,"count":1950,"max":[1,0,1,1],"min":[-1,-0.000022,-1,1],"normalized":false,"type":"VEC4"},{"bufferView":17,"byteOffset":0,"componentType":5126,"count":1950,"max":[1,1,1],"min":[-1,-1,-1],"normalized":false,"type":"VEC3"},{"bufferView":18,"byteOffset":0,"componentType":5126,"count":1950,"max":[1,1],"min":[0,0],"normalized":false,"type":"VEC2"},{"bufferView":19,"byteOffset":0,"componentType":5125,"count":10368,"max":[1949],"min":[0],"normalized":false,"type":"SCALAR"},{"bufferView":20,"byteOffset":0,"componentType":5126,"count":874,"max":[0.038438,0.055,0.025],"min":[-0.039531,-0.095,-0.025],"normalized":false,"type":"VEC3"},{"bufferView":21,"byteOffset":0,"componentType":5126,"count":874,"max":[1,1,0.000108,1],"min":[-1,-0.999981,-0.000097,1],"normalized":false,"type":"VEC4"},{"bufferView":22,"byteOffset":0,"componentType":5126,"count":874,"max":[0.999981,1,1],"min":[-1,-1,-1],"normalized":false,"type":"VEC3"},{"bufferView":23,"byteOffset":0,"componentType":5126,"count":874,"max":[1,0.9],"min":[0,0],"normalized":false,"type":"VEC2"},{"bufferView":24,"byteOffset":0,"componentType":5125,"count":1056,"max":[873],"min":[0],"normalized":false,"type":"SCALAR"},{"bufferView":25,"byteOffset":0,"componentType":5126,"count":1950,"max":[0.5,0.75,0.5],"min":[-0.5,-0.75,-0.5],"normalized":false,"type":"VEC3"},{"bufferView":26,"byteOffset":0,"componentType":5126,"count":1950,"max":[1,0,1,1],"min":[-1,-0.000022,-1,1],"normalized":false,"type":"VEC4"},{"bufferView":27,"byteOffset":0,"componentType":5126,"count":1950,"max":[1,1,1],"min":[-1,-1,-1],"normalized":false,"type":"VEC3"},{"bufferView":28,"byteOffset":0,"componentType":5126,"count":1950,"max":[1,1],"min":[0,0],"normalized":false,"type":"VEC2"},{"bufferView":29,"byteOffset":0,"componentType":5125,"count":10368,"max":[1949],"min":[0],"normalized":false,"type":"SCALAR"},{"bufferView":30,"byteOffset":0,"componentType":5126,"count":24,"max":[0.5,1,0.25],"min":[-0.5,-1,-0.25],"normalized":false,"type":"VEC3"},{"bufferView":31,"byteOffset":0,"componentType":5126,"count":24,"max":[1,0,1,1],"min":[-1,-0.000015,-1,1],"normalized":false,"type":"VEC4"},{"bufferView":32,"byteOffset":0,"componentType":5126,"count":24,"max":[1,1,1],"min":[-1,-1,-1],"normalized":false,"type":"VEC3"},{"bufferView":33,"byteOffset":0,"componentType":5126,"count":24,"max":[1,1],"min":[0,0],"normalized":false,"type":"VEC2"},{"bufferView":34,"byteOffset":0,"componentType":5125,"count":36,"max":[23],"min":[0],"normalized":false,"type":"SCALAR"}],"asset":{"generator":"Godot Engine v4.2.2.stable.mono.official@15073afe3856abd2aa1622492fe50026c7d63dc1","version":"2.0"},"bufferViews":[{"buffer":0,"byteLength":23400,"byteOffset":0},{"buffer":0,"byteLength":31200,"byteOffset":23400},{"buffer":0,"byteLength":23400,"byteOffset":54600},{"buffer":0,"byteLength":15600,"byteOffset":78000},{"buffer":0,"byteLength":41472,"byteOffset":93600},{"buffer":0,"byteLength":23400,"byteOffset":135072},{"buffer":0,"byteLength":31200,"byteOffset":158472},{"buffer":0,"byteLength":23400,"byteOffset":189672},{"buffer":0,"byteLength":15600,"byteOffset":213072},{"buffer":0,"byteLength":41472,"byteOffset":228672},{"buffer":0,"byteLength":23400,"byteOffset":270144},{"buffer":0,"byteLength":31200,"byteOffset":293544},{"buffer":0,"byteLength":23400,"byteOffset":324744},{"buffer":0,"byteLength":15600,"byteOffset":348144},{"buffer":0,"byteLength":41472,"byteOffset":363744},{"buffer":0,"byteLength":23400,"byteOffset":405216},{"buffer":0,"byteLength":31200,"byteOffset":428616},{"buffer":0,"byteLength":23400,"byteOffset":459816},{"buffer":0,"byteLength":15600,"byteOffset":483216},{"buffer":0,"byteLength":41472,"byteOffset":498816},{"buffer":0,"byteLength":10488,"byteOffset":540288},{"buffer":0,"byteLength":13984,"byteOffset":550776},{"buffer":0,"byteLength":10488,"byteOffset":564760},{"buffer":0,"byteLength":6992,"byteOffset":575248},{"buffer":0,"byteLength":4224,"byteOffset":582240},{"buffer":0,"byteLength":23400,"byteOffset":586464},{"buffer":0,"byteLength":31200,"byteOffset":609864},{"buffer":0,"byteLength":23400,"byteOffset":641064},{"buffer":0,"byteLength":15600,"byteOffset":664464},{"buffer":0,"byteLength":41472,"byteOffset":680064},{"buffer":0,"byteLength":288,"byteOffset":721536},{"buffer":0,"byteLength":384,"byteOffset":721824},{"buffer":0,"byteLength":288,"byteOffset":722208},{"buffer":0,"byteLength":192,"byteOffset":722496},{"buffer":0,"byteLength":144,"byteOffset":722688}],"buffers":[{"byteLength":722832,"uri":"player0.bin"}],"extensions":{"OMI_collider":{"colliders":[{"size":[1,2,0.5],"type":"box"}]}},"extensionsUsed":["GODOT_single_root","OMI_collider","OMI_physics_body"],"materials":[{"extensions":{},"pbrMetallicRoughness":{"baseColorFactor":[0.99999988079071,0.99999988079071,0.99999988079071,1],"metallicFactor":0,"roughnessFactor":1}},{"extensions":{},"pbrMetallicRoughness":{"baseColorFactor":[0.99999988079071,0.99999988079071,0.99999988079071,1],"metallicFactor":0,"roughnessFactor":1}},{"extensions":{},"pbrMetallicRoughness":{"baseColorFactor":[0.99999988079071,0.99999988079071,0.99999988079071,1],"metallicFactor":0,"roughnessFactor":1}},{"extensions":{},"pbrMetallicRoughness":{"baseColorFactor":[0.99999988079071,0.99999988079071,0.99999988079071,1],"metallicFactor":0,"roughnessFactor":1}},{"extensions":{},"pbrMetallicRoughness":{"baseColorFactor":[0.0202885158360004,0.0202885158360004,0.0202885158360004,1],"metallicFactor":0,"roughnessFactor":1}},{"alphaMode":"BLEND","extensions":{},"pbrMetallicRoughness":{"baseColorFactor":[0.356400638818741,0.356400638818741,0.356400638818741,0.396077990531921],"metallicFactor":0,"roughnessFactor":1}}],"meshes":[{"extras":{"targetNames":[]},"primitives":[{"attributes":{"NORMAL":2,"POSITION":0,"TANGENT":1,"TEXCOORD_0":3},"indices":4,"material":0,"mode":4}]},{"extras":{"targetNames":[]},"primitives":[{"attributes":{"NORMAL":7,"POSITION":5,"TANGENT":6,"TEXCOORD_0":8},"indices":9,"material":1,"mode":4}]},{"extras":{"targetNames":[]},"primitives":[{"attributes":{"NORMAL":12,"POSITION":10,"TANGENT":11,"TEXCOORD_0":13},"indices":14,"material":2,"mode":4}]},{"extras":{"targetNames":[]},"primitives":[{"attributes":{"NORMAL":17,"POSITION":15,"TANGENT":16,"TEXCOORD_0":18},"indices":19,"material":3,"mode":4}]},{"extras":{"targetNames":[]},"primitives":[{"attributes":{"NORMAL":22,"POSITION":20,"TANGENT":21,"TEXCOORD_0":23},"indices":24,"material":4,"mode":4}]},{"extras":{"targetNames":[]},"primitives":[{"attributes":{"NORMAL":27,"POSITION":25,"TANGENT":26,"TEXCOORD_0":28},"indices":29,"material":5,"mode":4}]},{"extras":{"targetNames":[]},"primitives":[{"attributes":{"NORMAL":32,"POSITION":30,"TANGENT":31,"TEXCOORD_0":33},"indices":34,"material":5,"mode":4}]}],"nodes":[{"children":[1,2,3,4,5,6,7,8],"extensions":{"OMI_physics_body":{"type":"character"}},"name":"Player","translation":[0,1,0]},{"extensions":{"OMI_collider":{"collider":0}},"name":"RootCollider"},{"extensions":{},"mesh":0,"name":"LeftArm","translation":[-0.60000002384186,0,0]},{"extensions":{},"mesh":1,"name":"LeftLeg","translation":[-0.25,-0.625,0]},{"extensions":{},"mesh":2,"name":"RightLeg","translation":[0.25,-0.625,0]},{"extensions":{},"mesh":3,"name":"RightArm","translation":[0.600000023841858,0,0]},{"extensions":{},"mesh":4,"name":"Face","rotation":[0,0,-0.70710676908493,0.70710676908493],"scale":[3,3,3],"translation":[0.0642552971839905,0.5918830037117,-0.44349199533463]},{"extensions":{},"mesh":5,"name":"Torso","translation":[0,0.25,0]},{"extensions":{},"mesh":6,"name":"CollisionHitboxIndicator"}],"scene":0,"scenes":[{"nodes":[0]}]}