{"accessors":[{"bufferView":0,"byteOffset":0,"componentType":5126,"count":36,"max":[4,0.5,4],"min":[-4,-0.5,-4],"normalized":false,"type":"VEC3"},{"bufferView":1,"byteOffset":0,"componentType":5126,"count":36,"max":[0,0,0.000076,-1],"min":[-1,-1,-1,-1],"normalized":false,"type":"VEC4"},{"bufferView":2,"byteOffset":0,"componentType":5126,"count":36,"max":[1,1,1],"min":[-1,-1,-1],"normalized":false,"type":"VEC3"},{"bufferView":3,"byteOffset":0,"componentType":5126,"count":36,"max":[1,1],"min":[0,0],"normalized":false,"type":"VEC2"},{"bufferView":4,"byteOffset":0,"componentType":5125,"count":36,"max":[35],"min":[0],"normalized":false,"type":"SCALAR"},{"bufferView":5,"byteOffset":0,"componentType":5126,"count":24,"max":[1.5,0.5,0.5],"min":[-1.5,-0.5,-0.5],"normalized":false,"type":"VEC3"},{"bufferView":6,"byteOffset":0,"componentType":5126,"count":24,"max":[1,0,1,1],"min":[-1,-0.000015,-1,1],"normalized":false,"type":"VEC4"},{"bufferView":7,"byteOffset":0,"componentType":5126,"count":24,"max":[0.316216,0.948687,1],"min":[-1,-1,-1],"normalized":false,"type":"VEC3"},{"bufferView":8,"byteOffset":0,"componentType":5126,"count":24,"max":[1,1],"min":[0,0],"normalized":false,"type":"VEC2"},{"bufferView":9,"byteOffset":0,"componentType":5125,"count":24,"max":[23],"min":[0],"normalized":false,"type":"SCALAR"},{"bufferView":10,"byteOffset":0,"componentType":5126,"count":24,"max":[1.5,0.5,0.5],"min":[-1.5,-0.5,-0.5],"normalized":false,"type":"VEC3"},{"bufferView":11,"byteOffset":0,"componentType":5126,"count":24,"max":[1,0,1,1],"min":[-1,-0.000015,-1,1],"normalized":false,"type":"VEC4"},{"bufferView":12,"byteOffset":0,"componentType":5126,"count":24,"max":[0.316216,0.948687,1],"min":[-1,-1,-1],"normalized":false,"type":"VEC3"},{"bufferView":13,"byteOffset":0,"componentType":5126,"count":24,"max":[1,1],"min":[0,0],"normalized":false,"type":"VEC2"},{"bufferView":14,"byteOffset":0,"componentType":5125,"count":24,"max":[23],"min":[0],"normalized":false,"type":"SCALAR"},{"bufferView":15,"byteOffset":0,"componentType":5126,"count":24,"max":[1.5,0.5,0.5],"min":[-1.5,-0.5,-0.5],"normalized":false,"type":"VEC3"},{"bufferView":16,"byteOffset":0,"componentType":5126,"count":24,"max":[1,0,1,1],"min":[-1,-0.000015,-1,1],"normalized":false,"type":"VEC4"},{"bufferView":17,"byteOffset":0,"componentType":5126,"count":24,"max":[0.316216,0.948687,1],"min":[-1,-1,-1],"normalized":false,"type":"VEC3"},{"bufferView":18,"byteOffset":0,"componentType":5126,"count":24,"max":[1,1],"min":[0,0],"normalized":false,"type":"VEC2"},{"bufferView":19,"byteOffset":0,"componentType":5125,"count":24,"max":[23],"min":[0],"normalized":false,"type":"SCALAR"},{"bufferView":20,"byteOffset":0,"componentType":5126,"count":24,"max":[1.5,0.5,0.5],"min":[-1.5,-0.5,-0.5],"normalized":false,"type":"VEC3"},{"bufferView":21,"byteOffset":0,"componentType":5126,"count":24,"max":[1,0,1,1],"min":[-1,-0.000015,-1,1],"normalized":false,"type":"VEC4"},{"bufferView":22,"byteOffset":0,"componentType":5126,"count":24,"max":[0.316216,0.948687,1],"min":[-1,-1,-1],"normalized":false,"type":"VEC3"},{"bufferView":23,"byteOffset":0,"componentType":5126,"count":24,"max":[1,1],"min":[0,0],"normalized":false,"type":"VEC2"},{"bufferView":24,"byteOffset":0,"componentType":5125,"count":24,"max":[23],"min":[0],"normalized":false,"type":"SCALAR"},{"bufferView":25,"byteOffset":0,"componentType":5126,"count":24,"max":[0.5,2.5,0.5],"min":[-0.5,-2.5,-0.5],"normalized":false,"type":"VEC3"},{"bufferView":26,"byteOffset":0,"componentType":5126,"count":24,"max":[1,0,1,1],"min":[-1,-0.000015,-1,1],"normalized":false,"type":"VEC4"},{"bufferView":27,"byteOffset":0,"componentType":5126,"count":24,"max":[0.980585,0.196095,1],"min":[-1,-1,-1],"normalized":false,"type":"VEC3"},{"bufferView":28,"byteOffset":0,"componentType":5126,"count":24,"max":[1,1],"min":[0,0],"normalized":false,"type":"VEC2"},{"bufferView":29,"byteOffset":0,"componentType":5125,"count":24,"max":[23],"min":[0],"normalized":false,"type":"SCALAR"},{"bufferView":30,"byteOffset":0,"componentType":5126,"count":24,"max":[0.5,2.5,0.5],"min":[-0.5,-2.5,-0.5],"normalized":false,"type":"VEC3"},{"bufferView":31,"byteOffset":0,"componentType":5126,"count":24,"max":[1,0,1,1],"min":[-1,-0.000015,-1,1],"normalized":false,"type":"VEC4"},{"bufferView":32,"byteOffset":0,"componentType":5126,"count":24,"max":[0.980585,0.196095,1],"min":[-1,-1,-1],"normalized":false,"type":"VEC3"},{"bufferView":33,"byteOffset":0,"componentType":5126,"count":24,"max":[1,1],"min":[0,0],"normalized":false,"type":"VEC2"},{"bufferView":34,"byteOffset":0,"componentType":5125,"count":24,"max":[23],"min":[0],"normalized":false,"type":"SCALAR"},{"bufferView":35,"byteOffset":0,"componentType":5126,"count":24,"max":[0.5,2.5,0.5],"min":[-0.5,-2.5,-0.5],"normalized":false,"type":"VEC3"},{"bufferView":36,"byteOffset":0,"componentType":5126,"count":24,"max":[1,0,1,1],"min":[-1,-0.000015,-1,1],"normalized":false,"type":"VEC4"},{"bufferView":37,"byteOffset":0,"componentType":5126,"count":24,"max":[0.980585,0.196095,1],"min":[-1,-1,-1],"normalized":false,"type":"VEC3"},{"bufferView":38,"byteOffset":0,"componentType":5126,"count":24,"max":[1,1],"min":[0,0],"normalized":false,"type":"VEC2"},{"bufferView":39,"byteOffset":0,"componentType":5125,"count":24,"max":[23],"min":[0],"normalized":false,"type":"SCALAR"},{"bufferView":40,"byteOffset":0,"componentType":5126,"count":24,"max":[0.5,2.5,0.5],"min":[-0.5,-2.5,-0.5],"normalized":false,"type":"VEC3"},{"bufferView":41,"byteOffset":0,"componentType":5126,"count":24,"max":[1,0,1,1],"min":[-1,-0.000015,-1,1],"normalized":false,"type":"VEC4"},{"bufferView":42,"byteOffset":0,"componentType":5126,"count":24,"max":[0.980585,0.196095,1],"min":[-1,-1,-1],"normalized":false,"type":"VEC3"},{"bufferView":43,"byteOffset":0,"componentType":5126,"count":24,"max":[1,1],"min":[0,0],"normalized":false,"type":"VEC2"},{"bufferView":44,"byteOffset":0,"componentType":5125,"count":24,"max":[23],"min":[0],"normalized":false,"type":"SCALAR"}],"asset":{"generator":"Godot Engine v4.1.1.stable.mono.official@bd6af8e0ea69167dd0627f3bd54f9105bda0f8b5","version":"2.0"},"bufferViews":[{"buffer":0,"byteLength":432,"byteOffset":0},{"buffer":0,"byteLength":576,"byteOffset":432},{"buffer":0,"byteLength":432,"byteOffset":1008},{"buffer":0,"byteLength":288,"byteOffset":1440},{"buffer":0,"byteLength":144,"byteOffset":1728},{"buffer":0,"byteLength":288,"byteOffset":1872},{"buffer":0,"byteLength":384,"byteOffset":2160},{"buffer":0,"byteLength":288,"byteOffset":2544},{"buffer":0,"byteLength":192,"byteOffset":2832},{"buffer":0,"byteLength":96,"byteOffset":3024},{"buffer":0,"byteLength":288,"byteOffset":3120},{"buffer":0,"byteLength":384,"byteOffset":3408},{"buffer":0,"byteLength":288,"byteOffset":3792},{"buffer":0,"byteLength":192,"byteOffset":4080},{"buffer":0,"byteLength":96,"byteOffset":4272},{"buffer":0,"byteLength":288,"byteOffset":4368},{"buffer":0,"byteLength":384,"byteOffset":4656},{"buffer":0,"byteLength":288,"byteOffset":5040},{"buffer":0,"byteLength":192,"byteOffset":5328},{"buffer":0,"byteLength":96,"byteOffset":5520},{"buffer":0,"byteLength":288,"byteOffset":5616},{"buffer":0,"byteLength":384,"byteOffset":5904},{"buffer":0,"byteLength":288,"byteOffset":6288},{"buffer":0,"byteLength":192,"byteOffset":6576},{"buffer":0,"byteLength":96,"byteOffset":6768},{"buffer":0,"byteLength":288,"byteOffset":6864},{"buffer":0,"byteLength":384,"byteOffset":7152},{"buffer":0,"byteLength":288,"byteOffset":7536},{"buffer":0,"byteLength":192,"byteOffset":7824},{"buffer":0,"byteLength":96,"byteOffset":8016},{"buffer":0,"byteLength":288,"byteOffset":8112},{"buffer":0,"byteLength":384,"byteOffset":8400},{"buffer":0,"byteLength":288,"byteOffset":8784},{"buffer":0,"byteLength":192,"byteOffset":9072},{"buffer":0,"byteLength":96,"byteOffset":9264},{"buffer":0,"byteLength":288,"byteOffset":9360},{"buffer":0,"byteLength":384,"byteOffset":9648},{"buffer":0,"byteLength":288,"byteOffset":10032},{"buffer":0,"byteLength":192,"byteOffset":10320},{"buffer":0,"byteLength":96,"byteOffset":10512},{"buffer":0,"byteLength":288,"byteOffset":10608},{"buffer":0,"byteLength":384,"byteOffset":10896},{"buffer":0,"byteLength":288,"byteOffset":11280},{"buffer":0,"byteLength":192,"byteOffset":11568},{"buffer":0,"byteLength":96,"byteOffset":11760}],"buffers":[{"byteLength":11856,"uri":"level0.bin"}],"materials":[{"extensions":{},"pbrMetallicRoughness":{"baseColorFactor":[0.99999988079071,0.99999988079071,0.99999988079071,1],"metallicFactor":0,"roughnessFactor":1}},{"extensions":{},"pbrMetallicRoughness":{"baseColorFactor":[0.99999988079071,0.99999988079071,0.99999988079071,1],"metallicFactor":0,"roughnessFactor":1}},{"extensions":{},"pbrMetallicRoughness":{"baseColorFactor":[0.99999988079071,0.99999988079071,0.99999988079071,1],"metallicFactor":0,"roughnessFactor":1}},{"extensions":{},"pbrMetallicRoughness":{"baseColorFactor":[0.99999988079071,0.99999988079071,0.99999988079071,1],"metallicFactor":0,"roughnessFactor":1}},{"extensions":{},"pbrMetallicRoughness":{"baseColorFactor":[0.99999988079071,0.99999988079071,0.99999988079071,1],"metallicFactor":0,"roughnessFactor":1}},{"extensions":{},"pbrMetallicRoughness":{"baseColorFactor":[0.99999988079071,0.99999988079071,0.99999988079071,1],"metallicFactor":0,"roughnessFactor":1}},{"extensions":{},"pbrMetallicRoughness":{"baseColorFactor":[0.99999988079071,0.99999988079071,0.99999988079071,1],"metallicFactor":0,"roughnessFactor":1}},{"extensions":{},"pbrMetallicRoughness":{"baseColorFactor":[0.99999988079071,0.99999988079071,0.99999988079071,1],"metallicFactor":0,"roughnessFactor":1}},{"extensions":{},"pbrMetallicRoughness":{"baseColorFactor":[0.99999988079071,0.99999988079071,0.99999988079071,1],"metallicFactor":0,"roughnessFactor":1}}],"meshes":[{"extras":{"targetNames":[]},"primitives":[{"attributes":{"NORMAL":2,"POSITION":0,"TANGENT":1,"TEXCOORD_0":3},"indices":4,"material":0,"mode":4}]},{"extras":{"targetNames":[]},"primitives":[{"attributes":{"NORMAL":7,"POSITION":5,"TANGENT":6,"TEXCOORD_0":8},"indices":9,"material":1,"mode":4}]},{"extras":{"targetNames":[]},"primitives":[{"attributes":{"NORMAL":12,"POSITION":10,"TANGENT":11,"TEXCOORD_0":13},"indices":14,"material":2,"mode":4}]},{"extras":{"targetNames":[]},"primitives":[{"attributes":{"NORMAL":17,"POSITION":15,"TANGENT":16,"TEXCOORD_0":18},"indices":19,"material":3,"mode":4}]},{"extras":{"targetNames":[]},"primitives":[{"attributes":{"NORMAL":22,"POSITION":20,"TANGENT":21,"TEXCOORD_0":23},"indices":24,"material":4,"mode":4}]},{"extras":{"targetNames":[]},"primitives":[{"attributes":{"NORMAL":27,"POSITION":25,"TANGENT":26,"TEXCOORD_0":28},"indices":29,"material":5,"mode":4}]},{"extras":{"targetNames":[]},"primitives":[{"attributes":{"NORMAL":32,"POSITION":30,"TANGENT":31,"TEXCOORD_0":33},"indices":34,"material":6,"mode":4}]},{"extras":{"targetNames":[]},"primitives":[{"attributes":{"NORMAL":37,"POSITION":35,"TANGENT":36,"TEXCOORD_0":38},"indices":39,"material":7,"mode":4}]},{"extras":{"targetNames":[]},"primitives":[{"attributes":{"NORMAL":42,"POSITION":40,"TANGENT":41,"TEXCOORD_0":43},"indices":44,"material":8,"mode":4}]}],"nodes":[{"children":[1],"extensions":{},"name":"DetailTest"},{"children":[2,3,4,5,6,7,8,9,10],"extensions":{},"name":"StaticObjects"},{"extensions":{},"mesh":0,"name":"CSGBox3D2"},{"extensions":{},"mesh":1,"name":"CSGMesh3D2","rotation":[0.70710676908493,0,0,0.70710676908493],"translation":[2.5,0,4.5]},{"extensions":{},"mesh":2,"name":"CSGMesh3D82","rotation":[-0.5,0.5,-0.5,-0.5],"translation":[-4.5,0.0000000874227694680485,2.5]},{"extensions":{},"mesh":3,"name":"CSGMesh3D42","rotation":[0.5,0.5,-0.5,0.5],"translation":[4.5,0.000000305979710901738,-2.5]},{"extensions":{},"mesh":4,"name":"CSGMesh3D62","rotation":[-0.00000003090862,0.70710676908493,-0.70710676908493,-0.00000003090862],"translation":[-2.50000023841858,0.000000393402501686069,-4.5]},{"extensions":{},"mesh":5,"name":"CSGMesh3D32","rotation":[0.70710676908493,0.00000000000000251214789090046,0.00000000000000251214767914222,0.70710676908493],"translation":[4.5,0.000000152989855450869,1.5]},{"extensions":{},"mesh":6,"name":"CSGMesh3D52","rotation":[0.5,0.5,-0.5,0.5],"translation":[1.5,0.000000415258170960442,-4.5]},{"extensions":{},"mesh":7,"name":"CSGMesh3D72","rotation":[-0.00000003090862,0.70710676908493,-0.70710676908493,-0.00000003090862],"translation":[-4.5,0.000000284124098470784,-1.5]},{"extensions":{},"mesh":8,"name":"CSGMesh3D23","rotation":[-0.5,0.5,-0.5,-0.5],"translation":[-1.5,0,4.5]}],"scene":0,"scenes":[{"nodes":[0]}]}